# xmcd CD database file
#
# Track frame offsets:
#	150
#	27937
#	62105
#	94070
#	123010
#	145810
#	170612
#
# Disc length: 2959 seconds
#
# Revision: 7
# Processed by: cddbd v1.5.2PL0 Copyright (c) Steve Scherf et al.
# Submitted via: CDex 1.51
#
DISCID=580b8d07
DTITLE=Deep Purple - Nobody's Perfect (Remastered)
DYEAR=1988
DGENRE=Hard Rock
TTITLE0=Highway Star
TTITLE1=Strange Kind of Woman
TTITLE2=Dead Or Alive
TTITLE3=Perfect Strangers
TTITLE4=Hard Lovin' Woman
TTITLE5=Bad Attitude
TTITLE6=Knocking At Your Back Door
EXTD=(C) 1988, 1989, Mercury Records (a Universal Music Company]\n(P) 1988, Thames records Ltd.\nPolydor 546 128-2 - LC00509\n\nVocals: Ian Gillan\nFender Guitars: Ritchie Blackmore\nOrgans and keyboards: Jon Lord\nDrums: Ian Paice\nBass: Roger Glover\n\
EXTD=nLive, recorded on tour in 1987 YEAR: 1988
EXTT0=
EXTT1=
EXTT2=
EXTT3=
EXTT4=
EXTT5=
EXTT6=
PLAYORDER=
